<mxfile host="65bd71144e">
    <diagram id="UDVblZL8JzzcVqYLhx1M" name="第 1 页">
        <mxGraphModel dx="1716" dy="527" grid="1" gridSize="10" guides="1" tooltips="1" connect="1" arrows="1" fold="1" page="1" pageScale="1" pageWidth="827" pageHeight="1169" background="#ffffff" math="0" shadow="0">
            <root>
                <mxCell id="0"/>
                <mxCell id="1" parent="0"/>
                <mxCell id="21" value="" style="rounded=0;whiteSpace=wrap;html=1;fillColor=#FFCC99;" parent="1" vertex="1">
                    <mxGeometry x="590" y="300" width="120" height="60" as="geometry"/>
                </mxCell>
                <mxCell id="19" value="" style="rounded=0;whiteSpace=wrap;html=1;fillColor=#FFCC99;" parent="1" vertex="1">
                    <mxGeometry x="110" y="300" width="120" height="60" as="geometry"/>
                </mxCell>
                <mxCell id="3" value="" style="rounded=0;whiteSpace=wrap;html=1;fillColor=#FFFFCC;" parent="1" vertex="1">
                    <mxGeometry x="230" y="110" width="310" height="60" as="geometry"/>
                </mxCell>
                <mxCell id="5" value="" style="shape=flexArrow;endArrow=classic;html=1;fillColor=#CCE5FF;" parent="1" edge="1">
                    <mxGeometry width="50" height="50" relative="1" as="geometry">
                        <mxPoint x="-80" y="170" as="sourcePoint"/>
                        <mxPoint x="660" y="170" as="targetPoint"/>
                        <Array as="points">
                            <mxPoint x="330" y="170"/>
                        </Array>
                    </mxGeometry>
                </mxCell>
                <mxCell id="7" value="&lt;font color=&quot;#000000&quot;&gt;辅助线程2&lt;/font&gt;" style="text;html=1;strokeColor=none;fillColor=none;align=center;verticalAlign=middle;whiteSpace=wrap;rounded=0;" parent="1" vertex="1">
                    <mxGeometry x="-70" y="130" width="60" height="30" as="geometry"/>
                </mxCell>
                <mxCell id="9" value="&lt;font color=&quot;#000000&quot;&gt;GC任务&lt;/font&gt;" style="text;html=1;strokeColor=none;fillColor=none;align=center;verticalAlign=middle;whiteSpace=wrap;rounded=0;" parent="1" vertex="1">
                    <mxGeometry x="330" y="125" width="60" height="30" as="geometry"/>
                </mxCell>
                <mxCell id="10" value="" style="rounded=0;whiteSpace=wrap;html=1;fillColor=#FFFFCC;" parent="1" vertex="1">
                    <mxGeometry x="230" y="200" width="360" height="60" as="geometry"/>
                </mxCell>
                <mxCell id="11" value="" style="shape=flexArrow;endArrow=classic;html=1;fillColor=#CCE5FF;" parent="1" edge="1">
                    <mxGeometry width="50" height="50" relative="1" as="geometry">
                        <mxPoint x="-80" y="260" as="sourcePoint"/>
                        <mxPoint x="660" y="260" as="targetPoint"/>
                        <Array as="points">
                            <mxPoint x="330" y="260"/>
                        </Array>
                    </mxGeometry>
                </mxCell>
                <mxCell id="12" value="&lt;font color=&quot;#000000&quot;&gt;辅助线程1&lt;/font&gt;" style="text;html=1;strokeColor=none;fillColor=none;align=center;verticalAlign=middle;whiteSpace=wrap;rounded=0;" parent="1" vertex="1">
                    <mxGeometry x="-70" y="220" width="60" height="30" as="geometry"/>
                </mxCell>
                <mxCell id="13" value="&lt;font color=&quot;#000000&quot;&gt;GC任务&lt;/font&gt;" style="text;html=1;strokeColor=none;fillColor=none;align=center;verticalAlign=middle;whiteSpace=wrap;rounded=0;" parent="1" vertex="1">
                    <mxGeometry x="330" y="215" width="60" height="30" as="geometry"/>
                </mxCell>
                <mxCell id="14" value="" style="rounded=0;whiteSpace=wrap;html=1;fillColor=#FFFFCC;" parent="1" vertex="1">
                    <mxGeometry x="230" y="300" width="260" height="60" as="geometry"/>
                </mxCell>
                <mxCell id="15" value="" style="shape=flexArrow;endArrow=classic;html=1;fillColor=#CCE5FF;" parent="1" edge="1">
                    <mxGeometry width="50" height="50" relative="1" as="geometry">
                        <mxPoint x="-80" y="360" as="sourcePoint"/>
                        <mxPoint x="660" y="360" as="targetPoint"/>
                        <Array as="points">
                            <mxPoint x="330" y="360"/>
                        </Array>
                    </mxGeometry>
                </mxCell>
                <mxCell id="16" value="&lt;font color=&quot;#000000&quot;&gt;主线程&lt;/font&gt;" style="text;html=1;strokeColor=none;fillColor=none;align=center;verticalAlign=middle;whiteSpace=wrap;rounded=0;" parent="1" vertex="1">
                    <mxGeometry x="-70" y="320" width="60" height="30" as="geometry"/>
                </mxCell>
                <mxCell id="17" value="&lt;font color=&quot;#000000&quot;&gt;GC任务&lt;/font&gt;" style="text;html=1;strokeColor=none;fillColor=none;align=center;verticalAlign=middle;whiteSpace=wrap;rounded=0;" parent="1" vertex="1">
                    <mxGeometry x="330" y="315" width="60" height="30" as="geometry"/>
                </mxCell>
                <mxCell id="20" value="&lt;font color=&quot;#000000&quot;&gt;JS任务&lt;/font&gt;" style="text;html=1;strokeColor=none;fillColor=none;align=center;verticalAlign=middle;whiteSpace=wrap;rounded=0;" parent="1" vertex="1">
                    <mxGeometry x="140" y="315" width="60" height="30" as="geometry"/>
                </mxCell>
                <mxCell id="22" value="&lt;font color=&quot;#000000&quot;&gt;JS任务&lt;/font&gt;" style="text;html=1;strokeColor=none;fillColor=none;align=center;verticalAlign=middle;whiteSpace=wrap;rounded=0;" parent="1" vertex="1">
                    <mxGeometry x="620" y="315" width="60" height="30" as="geometry"/>
                </mxCell>
                <mxCell id="23" value="&lt;span style=&quot;&quot; data-slate-fragment=&quot;JTdCJTIyb2JqZWN0JTIyJTNBJTIyZG9jdW1lbnQlMjIlMkMlMjJkYXRhJTIyJTNBJTdCJTdEJTJDJTIybm9kZXMlMjIlM0ElNUIlN0IlMjJvYmplY3QlMjIlM0ElMjJibG9jayUyMiUyQyUyMnR5cGUlMjIlM0ElMjJwYXJhZ3JhcGglMjIlMkMlMjJpc1ZvaWQlMjIlM0FmYWxzZSUyQyUyMmRhdGElMjIlM0ElN0IlN0QlMkMlMjJub2RlcyUyMiUzQSU1QiU3QiUyMm9iamVjdCUyMiUzQSUyMnRleHQlMjIlMkMlMjJsZWF2ZXMlMjIlM0ElNUIlN0IlMjJvYmplY3QlMjIlM0ElMjJsZWFmJTIyJTJDJTIydGV4dCUyMiUzQSUyMiVFOCVCRiU5OSVFNyVBNyU4RCVFNiU5QyVCQSVFNSU4OCVCNiVFNSU4RiVBRiVFNCVCQiVBNSVFNSU5QyVBOCVFNCVCOCU4MCVFNSVBRSU5QSVFNyVBOCU4QiVFNSVCQSVBNiVFNCVCOCU4QSVFNiU4RiU5MCVFOSVBQiU5OCVFNSU5RSU4MyVFNSU5QyVCRSVFNSU5QiU5RSVFNiU5NCVCNiVFNyU5QSU4NCVFNiU5NSU4OCVFNyU4RSU4NyVFRiVCQyU4QyVFNCVCRCU4NiVFNCVCQiU4RCVFNyU4NCVCNiVFOSU5QyU4MCVFOCVBNiU4MSVFNiU5QSU4MiVFNSU4MSU5Q0phdmFTY3JpcHQlRTUlQkMlOTUlRTYlOTMlOEUlRTclOUElODQlRTYlODklQTclRTglQTElOEMlRUYlQkMlOEMlRTUlQkQlOTMlRTklODElODclRTUlODglQjAlRTglQkUlODMlRTklOTUlQkYlRTYlOTclQjYlRTklOTclQjQlRTclOUElODRHQyVFNiU5NyVCNiVFRiVCQyU4QyVFOCVCRiU5OCVFNiU5OCVBRiVFOSU5QyU4MCVFOCVBNiU4MSVFNyVBRCU4OSVFNSVCRSU4NSVFNSVCRCU5MyVFNSU4OSU4RCVFNiU4OSU4MCVFNiU5QyU4OSVFNSVCOSVCNiVFOCVBMSU4QyVFNyU5QSU4NEdDJUU5JTgzJUJEJUU1JTlEJTg3JUU1JUFFJThDJUU2JTg4JTkwJUU3JTlBJTg0JUUzJTgwJTgyJTIyJTJDJTIybWFya3MlMjIlM0ElNUIlNUQlN0QlNUQlMkMlMjJrZXklMjIlM0ElMjJIY0dpbjFCVUxvbFAlMjIlN0QlNUQlMkMlMjJrZXklMjIlM0ElMjJkbzNVdjdhMDZIZ2ElMjIlN0QlNUQlMkMlMjJrZXklMjIlM0ElMjI3UkRTTXlmaFlLRHElMjIlN0Q=&quot;&gt;这种机制可以在一定程度上提高垃圾回收的效率，但仍然需要暂停JavaScript引擎的执行，当遇到较长时间的GC时，还是需要等待当前所有并行的GC都均完成的。&lt;/span&gt;" style="text;whiteSpace=wrap;html=1;" vertex="1" parent="1">
                    <mxGeometry x="-820" y="10" width="560" height="50" as="geometry"/>
                </mxCell>
            </root>
        </mxGraphModel>
    </diagram>
</mxfile>